<?xml version="1.0" encoding="utf-8"?>
<!-- Generator: Adobe Illustrator 16.0.0, SVG Export Plug-In . SVG Version: 6.00 Build 0)  -->
<!DOCTYPE svg PUBLIC "-//W3C//DTD SVG 1.1//EN" "http://www.w3.org/Graphics/SVG/1.1/DTD/svg11.dtd">
<svg version="1.1" id="Ebene_1" xmlns="http://www.w3.org/2000/svg" xmlns:xlink="http://www.w3.org/1999/xlink" x="0px" y="0px"
	 width="841.89px" height="595.28px" viewBox="0 0 841.89 595.28" enable-background="new 0 0 841.89 595.28" xml:space="preserve">
<g>
	<polyline fill="#0F9486" points="54.76,252.432 54.76,372.296 87.771,372.296 87.771,252.432 104.733,252.432 	"/>
	<line fill="#0F9486" x1="54.76" y1="210.589" x2="54.76" y2="252.432"/>
	<path fill="#0F9486" d="M140.1,162.906c0-11.747-4.75-22.524-12.504-30.265c-7.704-7.694-18.377-12.526-30.157-12.526
		c-11.784,0-22.435,4.833-30.162,12.526c-7.729,7.741-12.517,18.518-12.517,30.265v47.683H37.483H25.859v41.842H54.76v119.864
		h33.011V252.432h16.962l31.061-41.842H92.906l0.24-44.824c0-2.906,1.138-5.488,3.057-7.393c1.866-1.852,4.434-3.033,7.293-3.033
		c2.891,0,5.458,1.182,7.335,3.033c1.895,1.904,3.046,4.486,3.046,7.393v13.327H140.1V162.906z"/>
	<path fill="#0F9486" d="M242.679,308.08"/>
	<path fill="#0F9486" d="M244.569,309.839"/>
	<path fill="#0F9486" d="M246.751,312.293"/>
	<path fill="#0F9486" d="M250.146,316.751"/>
	<path fill="#0F9486" d="M252.732,321.257"/>
	<path fill="#0F9486" d="M255.63,329.08"/>
	<path fill="#0F9486" d="M257.05,340.104"/>
	<path fill="#0F9486" d="M257.05,346.066"/>
	<path fill="#0F9486" d="M305.833,330.783"/>
	<path fill="#0F9486" d="M242.679,304.121v-55.667h26.784v89.59c0,3.959,1.59,7.571,4.222,10.204
		c2.587,2.577,6.19,4.185,10.168,4.185c3.958,0,7.551-1.607,10.175-4.185c2.569-2.633,4.195-6.245,4.195-10.204v1.006v-90.596
		h33.237v90.596v-1.006c0,3.959,1.627,7.571,4.157,10.204c2.662,2.577,6.292,4.185,10.213,4.185c3.979,0,7.582-1.607,10.167-4.185
		c2.635-2.633,4.224-6.245,4.224-10.204v-89.59v-54.224l26.183,54.224v79.066v31.996v-5.136c0,10.431-4.035,19.976-10.694,26.841
		c-6.583,6.838-15.696,11.118-25.76,11.118c-10.045,0-19.232-4.28-25.769-11.118c-6.641-6.865-10.712-16.41-10.712-26.841
		c0,10.129-3.941,19.3-10.317,25.958c-6.434,6.64-15.245,10.805-24.99,10.805c-7.899,0-15.215-2.735-21.113-7.316v43.866"/>
	<polyline fill="#0F9486" points="135.793,210.589 135.59,290.37 135.793,373.848 104.733,373.378 104.733,252.432 	"/>
	<path fill="#0F9486" d="M135.793,210.589"/>
	<polyline fill="#0F9486" points="140.1,179.092 140.1,179.092 140.1,179.092 	"/>
	<path fill="#0F9486" d="M477.058,346.442V214.294c0-3.978-1.628-7.562-4.233-10.167c-2.576-2.606-6.188-4.213-10.119-4.213
		c-4.016,0-7.599,1.607-10.184,4.213c-2.569,2.604-4.225,6.189-4.225,10.167v-0.997v84.513h-33.274v-84.513v0.997
		c0-3.978-1.589-7.562-4.185-10.167c-2.595-2.606-6.198-4.213-10.148-4.213c-3.987,0-7.552,1.607-10.148,4.213
		c-2.624,2.604-4.222,6.189-4.222,10.167v89.525l-26.183-105.231c0-10.501,4.006-19.995,10.477-26.86
		c6.451-6.865,15.442-11.126,25.298-11.126c9.876,0,18.848,4.261,25.309,11.126c6.452,6.865,10.497,16.359,10.497,26.86v-0.629
		c0-10.52,3.949-19.967,10.477-26.833c6.452-6.889,15.423-11.125,25.271-11.125c9.922,0,18.838,4.237,25.28,11.125
		c6.489,6.865,10.496,16.312,10.496,26.833v-1.026v40.169v109.34"/>
	<path fill="#0F9486" stroke="#1D1E1C" stroke-width="0.1" stroke-miterlimit="10" d="M757.079,210.589"/>
	<path fill="#0F9486" stroke="#1D1E1C" stroke-width="0.1" stroke-miterlimit="10" d="M757.079,413.234"/>
	<polyline fill="#0F9486" points="757.079,212.667 757.079,121.191 791.68,121.191 791.68,212.667 	"/>
	<path fill="#0F9486" stroke="#1D1E1C" stroke-width="0.1" stroke-miterlimit="10" d="M757.079,252.432"/>
	<path fill="#0F9486" d="M791.68,252.432h34.628v-41.842H791.68h-34.601h-34.648v41.842h34.648V412.36V252.432H791.68l0.027,167.925
		v-1.759c0,17.314-6.714,33.001-17.662,44.324c-10.873,11.353-25.911,18.396-42.624,18.396c-16.607,0-31.693-7.043-42.594-18.396
		c-10.901-11.323-17.662-27.01-17.662-44.324v-151.58c0-2.285-1.76-4.316-4.636-5.868c-2.858-1.503-6.819-2.454-11.174-2.454
		c-4.364,0-8.323,0.951-11.153,2.454c-2.907,1.552-4.629,3.583-4.629,5.868v6.359l-0.329,67.902l-25.806,0.725l-0.104-101.421
		c0-6.368,4.74-12.104,12.33-16.289c7.619-4.186,18.086-6.717,29.691-6.717c11.596,0,22.119,2.531,29.691,6.717
		c7.618,4.184,12.33,9.92,12.33,16.289v54.642v116.234c0,8.567,3.302,16.311,8.736,21.98c5.362,5.586,12.902,9.065,21.123,9.065
		c8.222,0,15.686-3.479,21.095-9.065c5.389-5.67,8.748-13.413,8.748-21.98"/>
	<path fill="#0F9486" d="M257.05,421.502c0,12.304-4.994,23.43-12.979,31.498c-8.079,8.098-19.149,13.109-31.412,13.109
		c-12.301,0-23.39-5.012-31.417-13.109c-8.056-8.068-13.03-19.194-13.03-31.498c5.54-2.096,10.522-5.361,14.681-9.366
		c2.83-2.785,5.191-5.962,7.147-9.397c0,6.218,2.736,17.42,7.138,21.474c4.381,4.08,10.495,6.621,17.22,6.621
		c6.697,0,12.791-2.541,17.191-6.621c4.402-4.054,7.138-9.669,7.138-15.858v-53.315c0-6.217-2.736-11.878-7.138-15.885
		c-4.401-4.109-10.494-6.594-17.191-6.594c-6.725,0-12.839,2.484-17.22,6.594c-4.402,4.007-7.138,9.668-7.138,15.885v22.224v-3.884
		c0,11.55-4.755,21.998-12.509,29.617c-7.73,7.541-18.377,12.273-30.151,12.273c-11.79,0-22.441-4.732-30.172-12.273
		c-7.749-7.619-12.475-18.067-12.475-29.617l31.061-12.527c0,4.382,1.763,8.341,4.57,11.221c2.891,2.829,6.813,4.607,11.21,4.607
		c4.358,0,8.28-1.778,11.149-4.607c2.831-2.88,4.598-6.839,4.598-11.221v1.42v-23.794c0.768-11.005,5.663-20.898,13.182-28.215
		c8.229-7.966,19.553-12.932,32.09-12.932c11.539,0,23.221,5.314,31.271,12.254"/>
	<rect x="756.899" y="246.544" fill="#0F9486" width="34.958" height="172.053"/>
	<path fill="#0F9486" d="M503.344,341.082c0,2.755,1.101,5.332,2.953,7.166c1.807,1.797,4.364,2.952,7.12,2.952
		c2.803,0,5.36-1.155,7.167-2.952c1.853-1.834,2.952-4.411,2.952-7.166v-13.957v-34.403c0-11.004,4.459-20.974,11.681-28.187
		c7.214-7.27,17.184-11.681,28.158-11.681c10.976,0,20.917,4.411,28.158,11.681c7.195,7.213,11.625,17.183,11.625,28.187
		c0,11.049-4.43,21.077-11.625,28.26c-7.241,7.271-17.183,11.682-28.158,11.682c-4.814,0-9.424-0.827-13.627-2.388v-24.453
		c0.396,0.432,0.847,0.827,1.346,1.156c2.962,2.455,6.865,3.856,11.078,3.856c4.862,0,9.217-1.957,12.423-5.013
		c3.208-3.132,5.192-7.44,5.192-12.199v1.75c0-4.712-1.984-9.021-5.192-12.076c-3.206-3.18-7.561-5.06-12.423-5.06
		s-9.273,1.88-12.424,5.06c-3.236,3.055-5.22,7.364-5.22,12.076l-0.048,51.115c0,9.291-3.705,17.738-9.817,23.805
		c-6.066,6.141-14.484,9.922-23.775,9.922c-9.246,0-17.72-3.781-23.729-9.922c-6.113-6.066-10.101-14.56-10.101-23.852"/>
	<path fill="#0F9486" d="M613.484,341.458L613.484,341.458c0,11.276-4.062,19.693-10.42,27.134
		c-6.291,7.363-15.039,11.972-24.66,11.972c-9.667,0-18.433-4.608-24.753-11.972c-6.311-7.44-9.471-17.344-9.471-28.619
		l-21.246,4.137c0,16.91,5.812,28.516,16.44,39.539c10.599,11.068,25.279,17.889,41.494,17.889c16.128,0,30.81-6.82,41.382-17.889
		c10.655-11.023,17.041-25.356,17.041-42.19l0,0"/>
	<path fill="#0F9486" d="M639.573,378.738"/>
	<path fill="#0F9486" d="M639.573,346.066"/>
	<path fill="#0F9486" d="M613.636,375.127"/>
	<path fill="#0F9486" d="M613.636,346.292"/>
	<polygon fill="#0F9486" points="134.701,252.384 100.774,252.206 100.774,210.439 135.266,210.439 	"/>
	<rect x="613.438" y="299.709" fill="#0F9486" width="25.806" height="42.294"/>
	<path fill="#0F9486" d="M268.401,342.407c0,21.396-6.63,38.813-14.897,38.813c-8.201,0-14.887-17.417-14.887-38.813
		c0-21.472,6.686-38.888,14.887-38.888C261.771,303.52,268.401,320.936,268.401,342.407z"/>
	<polyline fill="#0F9486" points="613.334,238.973 613.588,338.42 613.588,341.58 639.292,341.458 	"/>
</g>
</svg>
